{
 "cells": [
  {
   "cell_type": "code",
   "execution_count": 1,
   "metadata": {},
   "outputs": [
    {
     "name": "stderr",
     "output_type": "stream",
     "text": [
      "ffmpeg version N-115034-ge09164940e-tessus  https://evermeet.cx/ffmpeg/  Copyright (c) 2000-2024 the FFmpeg developers\n",
      "  built with Apple clang version 15.0.0 (clang-1500.3.9.4)\n",
      "  configuration: --cc=/usr/bin/clang --prefix=/opt/ffmpeg --extra-version=tessus --enable-avisynth --enable-fontconfig --enable-gpl --enable-libaom --enable-libass --enable-libbluray --enable-libdav1d --enable-libfreetype --enable-libgsm --enable-libharfbuzz --enable-libmodplug --enable-libmp3lame --enable-libmysofa --enable-libopencore-amrnb --enable-libopencore-amrwb --enable-libopenh264 --enable-libopenjpeg --enable-libopus --enable-librubberband --enable-libshine --enable-libsnappy --enable-libsoxr --enable-libspeex --enable-libtheora --enable-libtwolame --enable-libvidstab --enable-libvmaf --enable-libvo-amrwbenc --enable-libvorbis --enable-libvpx --enable-libwebp --enable-libx264 --enable-libx265 --enable-libxavs --enable-libxml2 --enable-libxvid --enable-libzimg --enable-libzmq --enable-libzvbi --enable-version3 --pkg-config-flags=--static --disable-ffplay\n",
      "  libavutil      59. 16.101 / 59. 16.101\n",
      "  libavcodec     61.  5.103 / 61.  5.103\n",
      "  libavformat    61.  3.103 / 61.  3.103\n",
      "  libavdevice    61.  2.100 / 61.  2.100\n",
      "  libavfilter    10.  2.101 / 10.  2.101\n",
      "  libswscale      8.  2.100 /  8.  2.100\n",
      "  libswresample   5.  2.100 /  5.  2.100\n",
      "  libpostproc    58.  2.100 / 58.  2.100\n",
      "Input #0, mov,mp4,m4a,3gp,3g2,mj2, from 'mp4/plan_plot.mp4':\n",
      "  Metadata:\n",
      "    major_brand     : mp42\n",
      "    minor_version   : 1\n",
      "    compatible_brands: isommp41mp42\n",
      "    creation_time   : 2024-04-29T14:14:07.000000Z\n",
      "  Duration: 00:00:24.73, start: 0.000000, bitrate: 844 kb/s\n",
      "  Stream #0:0[0x1](und): Video: h264 (High) (avc1 / 0x31637661), yuv420p(tv, bt709, progressive), 1066x720, 841 kb/s, 30 fps, 30 tbr, 600 tbn (default)\n",
      "      Metadata:\n",
      "        creation_time   : 2024-04-29T14:14:07.000000Z\n",
      "        handler_name    : Core Media Video\n",
      "        vendor_id       : [0][0][0][0]\n",
      "Stream mapping:\n",
      "  Stream #0:0 -> #0:0 (h264 (native) -> h264 (libx264))\n",
      "Press [q] to stop, [?] for help\n",
      "[vf#0:0 @ 0x7f7d32714d40] No information about the input framerate is available. Falling back to a default value of 25fps. Use the -r option if you want a different framerate.\n",
      "[libx264 @ 0x7f7d3271e080] using cpu capabilities: MMX2 SSE2Fast SSSE3 SSE4.2\n",
      "[libx264 @ 0x7f7d3271e080] profile High, level 3.1, 4:2:0, 8-bit\n",
      "[libx264 @ 0x7f7d3271e080] 264 - core 164 r3190 7ed753b - H.264/MPEG-4 AVC codec - Copyleft 2003-2024 - http://www.videolan.org/x264.html - options: cabac=1 ref=3 deblock=1:0:0 analyse=0x3:0x113 me=hex subme=7 psy=1 psy_rd=1.00:0.00 mixed_ref=1 me_range=16 chroma_me=1 trellis=1 8x8dct=1 cqm=0 deadzone=21,11 fast_pskip=1 chroma_qp_offset=-2 threads=12 lookahead_threads=2 sliced_threads=0 nr=0 decimate=1 interlaced=0 bluray_compat=0 constrained_intra=0 bframes=3 b_pyramid=2 b_adapt=1 b_bias=0 direct=1 weightb=1 open_gop=0 weightp=2 keyint=250 keyint_min=25 scenecut=40 intra_refresh=0 rc_lookahead=40 rc=crf mbtree=1 crf=23.0 qcomp=0.60 qpmin=0 qpmax=69 qpstep=4 ip_ratio=1.40 aq=1:1.00\n",
      "Output #0, mp4, to 'mp4/2024-05-01-18:42:16.mp4':\n",
      "  Metadata:\n",
      "    major_brand     : mp42\n",
      "    minor_version   : 1\n",
      "    compatible_brands: isommp41mp42\n",
      "    encoder         : Lavf61.3.103\n",
      "  Stream #0:0(und): Video: h264 (avc1 / 0x31637661), yuv420p(tv, bt709, progressive), 1066x720, q=2-31, 25 fps, 12800 tbn (default)\n",
      "      Metadata:\n",
      "        creation_time   : 2024-04-29T14:14:07.000000Z\n",
      "        handler_name    : Core Media Video\n",
      "        vendor_id       : [0][0][0][0]\n",
      "        encoder         : Lavc61.5.103 libx264\n",
      "      Side data:\n",
      "        cpb: bitrate max/min/avg: 0/0/0 buffer size: 0 vbv_delay: N/A\n",
      "[out#0/mp4 @ 0x7f7d327132c0] video:354KiB audio:0KiB subtitle:0KiB other streams:0KiB global headers:0KiB muxing overhead: 0.920022%\n",
      "frame=  207 fps=107 q=-1.0 Lsize=     357KiB time=00:00:08.20 bitrate= 356.7kbits/s dup=0 drop=536 speed=4.22x    \n",
      "[libx264 @ 0x7f7d3271e080] frame I:3     Avg QP:18.32  size: 39075\n",
      "[libx264 @ 0x7f7d3271e080] frame P:59    Avg QP:21.12  size:  3568\n",
      "[libx264 @ 0x7f7d3271e080] frame B:145   Avg QP:24.07  size:   233\n",
      "[libx264 @ 0x7f7d3271e080] consecutive B-frames:  3.9%  6.8%  4.3% 85.0%\n",
      "[libx264 @ 0x7f7d3271e080] mb I  I16..4: 39.0% 34.9% 26.0%\n",
      "[libx264 @ 0x7f7d3271e080] mb P  I16..4:  2.4%  3.6%  1.3%  P16..4:  3.1%  0.6%  0.4%  0.0%  0.0%    skip:88.6%\n",
      "[libx264 @ 0x7f7d3271e080] mb B  I16..4:  0.1%  0.2%  0.0%  B16..8:  3.6%  0.1%  0.0%  direct: 0.0%  skip:95.9%  L0:49.2% L1:49.7% BI: 1.1%\n",
      "[libx264 @ 0x7f7d3271e080] 8x8 transform intra:44.7% inter:30.6%\n",
      "[libx264 @ 0x7f7d3271e080] coded y,uvDC,uvAC intra: 14.6% 3.4% 2.9% inter: 0.6% 0.1% 0.1%\n",
      "[libx264 @ 0x7f7d3271e080] i16 v,h,dc,p: 49% 46%  4%  1%\n",
      "[libx264 @ 0x7f7d3271e080] i8 v,h,dc,ddl,ddr,vr,hd,vl,hu: 41% 16% 42%  0%  0%  0%  0%  0%  1%\n",
      "[libx264 @ 0x7f7d3271e080] i4 v,h,dc,ddl,ddr,vr,hd,vl,hu: 37% 24% 18%  2%  3%  4%  4%  3%  4%\n",
      "[libx264 @ 0x7f7d3271e080] i8c dc,h,v,p: 96%  2%  2%  0%\n",
      "[libx264 @ 0x7f7d3271e080] Weighted P-Frames: Y:6.8% UV:3.4%\n",
      "[libx264 @ 0x7f7d3271e080] ref P L0: 63.2% 11.3% 17.3%  8.2%  0.1%\n",
      "[libx264 @ 0x7f7d3271e080] ref B L0: 62.2% 33.0%  4.8%\n",
      "[libx264 @ 0x7f7d3271e080] ref B L1: 96.8%  3.2%\n",
      "[libx264 @ 0x7f7d3271e080] kb/s:349.36\n",
      "ffmpeg version N-115034-ge09164940e-tessus  https://evermeet.cx/ffmpeg/  Copyright (c) 2000-2024 the FFmpeg developers\n",
      "  built with Apple clang version 15.0.0 (clang-1500.3.9.4)\n",
      "  configuration: --cc=/usr/bin/clang --prefix=/opt/ffmpeg --extra-version=tessus --enable-avisynth --enable-fontconfig --enable-gpl --enable-libaom --enable-libass --enable-libbluray --enable-libdav1d --enable-libfreetype --enable-libgsm --enable-libharfbuzz --enable-libmodplug --enable-libmp3lame --enable-libmysofa --enable-libopencore-amrnb --enable-libopencore-amrwb --enable-libopenh264 --enable-libopenjpeg --enable-libopus --enable-librubberband --enable-libshine --enable-libsnappy --enable-libsoxr --enable-libspeex --enable-libtheora --enable-libtwolame --enable-libvidstab --enable-libvmaf --enable-libvo-amrwbenc --enable-libvorbis --enable-libvpx --enable-libwebp --enable-libx264 --enable-libx265 --enable-libxavs --enable-libxml2 --enable-libxvid --enable-libzimg --enable-libzmq --enable-libzvbi --enable-version3 --pkg-config-flags=--static --disable-ffplay\n",
      "  libavutil      59. 16.101 / 59. 16.101\n",
      "  libavcodec     61.  5.103 / 61.  5.103\n",
      "  libavformat    61.  3.103 / 61.  3.103\n",
      "  libavdevice    61.  2.100 / 61.  2.100\n",
      "  libavfilter    10.  2.101 / 10.  2.101\n",
      "  libswscale      8.  2.100 /  8.  2.100\n",
      "  libswresample   5.  2.100 /  5.  2.100\n",
      "  libpostproc    58.  2.100 / 58.  2.100\n",
      "Input #0, mov,mp4,m4a,3gp,3g2,mj2, from 'mp4/2024-05-01-18:42:16.mp4':\n",
      "  Metadata:\n",
      "    major_brand     : isom\n",
      "    minor_version   : 512\n",
      "    compatible_brands: isomiso2avc1mp41\n",
      "    encoder         : Lavf61.3.103\n",
      "  Duration: 00:00:08.28, start: 0.000000, bitrate: 353 kb/s\n",
      "  Stream #0:0[0x1](und): Video: h264 (High) (avc1 / 0x31637661), yuv420p(tv, bt709, progressive), 1066x720, 350 kb/s, 25 fps, 25 tbr, 12800 tbn (default)\n",
      "      Metadata:\n",
      "        handler_name    : Core Media Video\n",
      "        vendor_id       : [0][0][0][0]\n",
      "        encoder         : Lavc61.5.103 libx264\n",
      "Stream mapping:\n",
      "  Stream #0:0 -> #0:0 (h264 (native) -> gif (native))\n",
      "Press [q] to stop, [?] for help\n",
      "[swscaler @ 0x7f8d88878000] [swscaler @ 0x7f8da8410000] No accelerated colorspace conversion found from yuv420p to bgr8.\n",
      "[swscaler @ 0x7f8d88878000] [swscaler @ 0x7f8da8420000] No accelerated colorspace conversion found from yuv420p to bgr8.\n",
      "[swscaler @ 0x7f8d88878000] [swscaler @ 0x7f8da8430000] No accelerated colorspace conversion found from yuv420p to bgr8.\n",
      "[swscaler @ 0x7f8d88878000] [swscaler @ 0x7f8da8440000] No accelerated colorspace conversion found from yuv420p to bgr8.\n",
      "[swscaler @ 0x7f8d88878000] [swscaler @ 0x7f8da8450000] No accelerated colorspace conversion found from yuv420p to bgr8.\n",
      "[swscaler @ 0x7f8d88878000] [swscaler @ 0x7f8da8460000] No accelerated colorspace conversion found from yuv420p to bgr8.\n",
      "[swscaler @ 0x7f8d88878000] [swscaler @ 0x7f8da8470000] No accelerated colorspace conversion found from yuv420p to bgr8.\n",
      "[swscaler @ 0x7f8d88878000] [swscaler @ 0x7f8da8480000] No accelerated colorspace conversion found from yuv420p to bgr8.\n",
      "[swscaler @ 0x7f8d88878000] [swscaler @ 0x7f8da8490000] No accelerated colorspace conversion found from yuv420p to bgr8.\n",
      "Output #0, gif, to 'converted/plot.gif':\n",
      "  Metadata:\n",
      "    major_brand     : isom\n",
      "    minor_version   : 512\n",
      "    compatible_brands: isomiso2avc1mp41\n",
      "    encoder         : Lavf61.3.103\n",
      "  Stream #0:0(und): Video: gif, bgr8(pc, gbr/bt709/bt709, progressive), 1066x720, q=2-31, 200 kb/s, 25 fps, 100 tbn (default)\n",
      "      Metadata:\n",
      "        handler_name    : Core Media Video\n",
      "        vendor_id       : [0][0][0][0]\n",
      "        encoder         : Lavc61.5.103 gif\n",
      "frame=  149 fps= 99 q=-0.0 size=     768KiB time=00:00:05.96 bitrate=1055.6kbits/s speed=3.95x    \r"
     ]
    },
    {
     "name": "stdout",
     "output_type": "stream",
     "text": [
      "Removed intermediate file: mp4/2024-05-01-18:42:16.mp4\n",
      "Your GIF has been successfully generated.\n"
     ]
    },
    {
     "name": "stderr",
     "output_type": "stream",
     "text": [
      "[out#0/gif @ 0x7f8db58078c0] video:1276KiB audio:0KiB subtitle:0KiB other streams:0KiB global headers:0KiB muxing overhead: 0.001531%\n",
      "frame=  207 fps=101 q=-0.0 Lsize=    1276KiB time=00:00:08.28 bitrate=1262.5kbits/s speed=4.03x    \n"
     ]
    }
   ],
   "source": [
    "\n",
    "from backend.tools import convert_mp4_to_gif\n",
    "convert_mp4_to_gif(\"mp4/plan_plot.mp4\", \"converted/plot.gif\", 3)"
   ]
  },
  {
   "cell_type": "code",
   "execution_count": 1,
   "metadata": {},
   "outputs": [
    {
     "name": "stderr",
     "output_type": "stream",
     "text": [
      "ffmpeg version N-115034-ge09164940e-tessus  https://evermeet.cx/ffmpeg/  Copyright (c) 2000-2024 the FFmpeg developers\n",
      "  built with Apple clang version 15.0.0 (clang-1500.3.9.4)\n",
      "  configuration: --cc=/usr/bin/clang --prefix=/opt/ffmpeg --extra-version=tessus --enable-avisynth --enable-fontconfig --enable-gpl --enable-libaom --enable-libass --enable-libbluray --enable-libdav1d --enable-libfreetype --enable-libgsm --enable-libharfbuzz --enable-libmodplug --enable-libmp3lame --enable-libmysofa --enable-libopencore-amrnb --enable-libopencore-amrwb --enable-libopenh264 --enable-libopenjpeg --enable-libopus --enable-librubberband --enable-libshine --enable-libsnappy --enable-libsoxr --enable-libspeex --enable-libtheora --enable-libtwolame --enable-libvidstab --enable-libvmaf --enable-libvo-amrwbenc --enable-libvorbis --enable-libvpx --enable-libwebp --enable-libx264 --enable-libx265 --enable-libxavs --enable-libxml2 --enable-libxvid --enable-libzimg --enable-libzmq --enable-libzvbi --enable-version3 --pkg-config-flags=--static --disable-ffplay\n",
      "  libavutil      59. 16.101 / 59. 16.101\n",
      "  libavcodec     61.  5.103 / 61.  5.103\n",
      "  libavformat    61.  3.103 / 61.  3.103\n",
      "  libavdevice    61.  2.100 / 61.  2.100\n",
      "  libavfilter    10.  2.101 / 10.  2.101\n",
      "  libswscale      8.  2.100 /  8.  2.100\n",
      "  libswresample   5.  2.100 /  5.  2.100\n",
      "  libpostproc    58.  2.100 / 58.  2.100\n",
      "Input #0, mov,mp4,m4a,3gp,3g2,mj2, from 'mp4/plan_plot.mp4':\n",
      "  Metadata:\n",
      "    major_brand     : mp42\n",
      "    minor_version   : 1\n",
      "    compatible_brands: isommp41mp42\n",
      "    creation_time   : 2024-04-29T14:14:07.000000Z\n",
      "  Duration: 00:00:24.73, start: 0.000000, bitrate: 844 kb/s\n",
      "  Stream #0:0[0x1](und): Video: h264 (High) (avc1 / 0x31637661), yuv420p(tv, bt709, progressive), 1066x720, 841 kb/s, 30 fps, 30 tbr, 600 tbn (default)\n",
      "      Metadata:\n",
      "        creation_time   : 2024-04-29T14:14:07.000000Z\n",
      "        handler_name    : Core Media Video\n",
      "        vendor_id       : [0][0][0][0]\n",
      "Stream mapping:\n",
      "  Stream #0:0 -> #0:0 (h264 (native) -> h264 (libx264))\n",
      "Press [q] to stop, [?] for help\n",
      "[vf#0:0 @ 0x7fc9b5809600] No information about the input framerate is available. Falling back to a default value of 25fps. Use the -r option if you want a different framerate.\n",
      "[libx264 @ 0x7fc9b5808140] using cpu capabilities: MMX2 SSE2Fast SSSE3 SSE4.2\n",
      "[libx264 @ 0x7fc9b5808140] profile High, level 3.1, 4:2:0, 8-bit\n",
      "[libx264 @ 0x7fc9b5808140] 264 - core 164 r3190 7ed753b - H.264/MPEG-4 AVC codec - Copyleft 2003-2024 - http://www.videolan.org/x264.html - options: cabac=1 ref=3 deblock=1:0:0 analyse=0x3:0x113 me=hex subme=7 psy=1 psy_rd=1.00:0.00 mixed_ref=1 me_range=16 chroma_me=1 trellis=1 8x8dct=1 cqm=0 deadzone=21,11 fast_pskip=1 chroma_qp_offset=-2 threads=12 lookahead_threads=2 sliced_threads=0 nr=0 decimate=1 interlaced=0 bluray_compat=0 constrained_intra=0 bframes=3 b_pyramid=2 b_adapt=1 b_bias=0 direct=1 weightb=1 open_gop=0 weightp=2 keyint=250 keyint_min=25 scenecut=40 intra_refresh=0 rc_lookahead=40 rc=crf mbtree=1 crf=23.0 qcomp=0.60 qpmin=0 qpmax=69 qpstep=4 ip_ratio=1.40 aq=1:1.00\n",
      "Output #0, mp4, to 'mp4/plan_plot_speed.mp4':\n",
      "  Metadata:\n",
      "    major_brand     : mp42\n",
      "    minor_version   : 1\n",
      "    compatible_brands: isommp41mp42\n",
      "    encoder         : Lavf61.3.103\n",
      "  Stream #0:0(und): Video: h264 (avc1 / 0x31637661), yuv420p(tv, bt709, progressive), 1066x720, q=2-31, 25 fps, 12800 tbn (default)\n",
      "      Metadata:\n",
      "        creation_time   : 2024-04-29T14:14:07.000000Z\n",
      "        handler_name    : Core Media Video\n",
      "        vendor_id       : [0][0][0][0]\n",
      "        encoder         : Lavc61.5.103 libx264\n",
      "      Side data:\n",
      "        cpb: bitrate max/min/avg: 0/0/0 buffer size: 0 vbv_delay: N/A\n",
      "[out#0/mp4 @ 0x7fc9b5813800] video:354KiB audio:0KiB subtitle:0KiB other streams:0KiB global headers:0KiB muxing overhead: 0.920022%\n",
      "frame=  207 fps=103 q=-1.0 Lsize=     357KiB time=00:00:08.20 bitrate= 356.7kbits/s dup=0 drop=536 speed=4.09x    \n",
      "[libx264 @ 0x7fc9b5808140] frame I:3     Avg QP:18.32  size: 39075\n",
      "[libx264 @ 0x7fc9b5808140] frame P:59    Avg QP:21.12  size:  3568\n",
      "[libx264 @ 0x7fc9b5808140] frame B:145   Avg QP:24.07  size:   233\n",
      "[libx264 @ 0x7fc9b5808140] consecutive B-frames:  3.9%  6.8%  4.3% 85.0%\n",
      "[libx264 @ 0x7fc9b5808140] mb I  I16..4: 39.0% 34.9% 26.0%\n",
      "[libx264 @ 0x7fc9b5808140] mb P  I16..4:  2.4%  3.6%  1.3%  P16..4:  3.1%  0.6%  0.4%  0.0%  0.0%    skip:88.6%\n",
      "[libx264 @ 0x7fc9b5808140] mb B  I16..4:  0.1%  0.2%  0.0%  B16..8:  3.6%  0.1%  0.0%  direct: 0.0%  skip:95.9%  L0:49.2% L1:49.7% BI: 1.1%\n",
      "[libx264 @ 0x7fc9b5808140] 8x8 transform intra:44.7% inter:30.6%\n",
      "[libx264 @ 0x7fc9b5808140] coded y,uvDC,uvAC intra: 14.6% 3.4% 2.9% inter: 0.6% 0.1% 0.1%\n",
      "[libx264 @ 0x7fc9b5808140] i16 v,h,dc,p: 49% 46%  4%  1%\n",
      "[libx264 @ 0x7fc9b5808140] i8 v,h,dc,ddl,ddr,vr,hd,vl,hu: 41% 16% 42%  0%  0%  0%  0%  0%  1%\n",
      "[libx264 @ 0x7fc9b5808140] i4 v,h,dc,ddl,ddr,vr,hd,vl,hu: 37% 24% 18%  2%  3%  4%  4%  3%  4%\n",
      "[libx264 @ 0x7fc9b5808140] i8c dc,h,v,p: 96%  2%  2%  0%\n",
      "[libx264 @ 0x7fc9b5808140] Weighted P-Frames: Y:6.8% UV:3.4%\n",
      "[libx264 @ 0x7fc9b5808140] ref P L0: 63.2% 11.3% 17.3%  8.2%  0.1%\n",
      "[libx264 @ 0x7fc9b5808140] ref B L0: 62.2% 33.0%  4.8%\n",
      "[libx264 @ 0x7fc9b5808140] ref B L1: 96.8%  3.2%\n",
      "[libx264 @ 0x7fc9b5808140] kb/s:349.36\n"
     ]
    }
   ],
   "source": [
    "from backend.tools import change_mp4_speed\n",
    "change_mp4_speed(\"mp4/plan_plot.mp4\", \"mp4/plan_plot_speed.mp4\", 3)"
   ]
  },
  {
   "cell_type": "code",
   "execution_count": 1,
   "metadata": {},
   "outputs": [
    {
     "name": "stdout",
     "output_type": "stream",
     "text": [
      "Merged file saved at path /Users/danliu/job_application/merged_output_3.pdf\n",
      "Merged file saved at path /Users/danliu/job_application/merged_output_4.pdf\n"
     ]
    }
   ],
   "source": [
    "\n",
    "from backend.tools import PDFMerger\n",
    "save_dir = \"/Users/danliu/job_application\"  \n",
    "merger = PDFMerger(save_dir=save_dir, input_dir = save_dir)\n",
    "\n",
    "output_filename = \"merged_output_3\"  \n",
    "merger.merge_from_folder(output_filename)\n",
    "\n",
    "output_filename = \"merged_output_4\" \n",
    "merger.merge_specific_files_from_folder([\"Resume\", \"masters\"],\n",
    "                                        output_filename)"
   ]
  },
  {
   "cell_type": "code",
   "execution_count": 2,
   "metadata": {},
   "outputs": [],
   "source": [
    " "
   ]
  }
 ],
 "metadata": {
  "kernelspec": {
   "display_name": "mp42gif",
   "language": "python",
   "name": "python3"
  },
  "language_info": {
   "codemirror_mode": {
    "name": "ipython",
    "version": 3
   },
   "file_extension": ".py",
   "mimetype": "text/x-python",
   "name": "python",
   "nbconvert_exporter": "python",
   "pygments_lexer": "ipython3",
   "version": "3.11.9"
  },
  "orig_nbformat": 4
 },
 "nbformat": 4,
 "nbformat_minor": 2
}
